<svg xmlns="http://www.w3.org/2000/svg" width="86.247" height="47.584" xmlns:v="https://vecta.io/nano"><path d="M47.588 23.801l-.335 1.884c-1.048 6.338-4.034 12.772-9.052 16.913-1.556 1.287-3.291 2.341-5.151 3.127a23.98 23.98 0 0 1-18.513 0A23.69 23.69 0 0 1 1.86 33.048a23.65 23.65 0 0 1-1.859-9.257V1.487h8.921v13.272c0 6.442-.969 13.217 3.479 18.552.532.639 1.119 1.231 1.753 1.769 4.275 3.525 10.112 4.485 15.291 2.515 2.754-1.052 5.079-2.991 6.609-5.51 3.234-5.541 2.765-12.3 5.29-18.1 2.267-5.4 6.506-9.734 11.855-12.119a23.98 23.98 0 0 1 18.513 0 23.69 23.69 0 0 1 12.677 12.677 23.67 23.67 0 0 1 1.859 9.257v22.295h-8.926v-22.3a15.05 15.05 0 0 0-1.152-5.8 15.08 15.08 0 0 0-7.918-7.918c-3.714-1.537-7.886-1.537-11.6 0-5.962 2.462-7.959 8.002-9.064 13.724z" fill="#5bbc6d"/></svg>